<svg width="192" height="192" viewBox="0 0 192 192" fill="none" xmlns="http://www.w3.org/2000/svg">
  <rect width="192" height="192" rx="40" fill="#0F766E"/>
  <path d="M96 35C118.644 35 137 53.3563 137 76C137 98.6437 118.644 117 96 117C73.3563 117 55 98.6437 55 76C55 53.3563 73.3563 35 96 35Z" fill="#F8FAFC" fill-opacity="0.96"/>
  <path d="M124.5 70.5C112.5 76.5 101.5 76.5 91.5 69C82.5 62.25 77.25 53.25 75.75 42C62.75 49.25 54 61.75 54 76C54 99.196 72.804 118 96 118C117.757 118 135.652 101.448 137.788 80.25C133.538 77.25 129.109 74 124.5 70.5Z" fill="#0F766E"/>
  <path d="M50 139C66.5 126.5 81.8333 120.25 96 120.25C110.167 120.25 125.5 126.5 142 139V154H50V139Z" fill="#F59E0B"/>
  <path d="M70 146H122" stroke="#FEFCE8" stroke-width="8" stroke-linecap="round"/>
</svg>
